<?xml version="1.0" standalone="no"?>
<svg xmlns:xlink="http://www.w3.org/1999/xlink" id="wave" style="transform:rotate(0deg); transition: 0.3s" viewBox="0 0 1440 170" version="1.1" xmlns="http://www.w3.org/2000/svg"><defs><linearGradient id="sw-gradient-0" x1="0" x2="0" y1="1" y2="0"><stop stop-color="rgba(242, 17, 112, 1)" offset="0%"/><stop stop-color="rgba(242, 17, 112, 1)" offset="100%"/></linearGradient></defs><path style="transform:translate(0, 0px); opacity:1" fill="url(#sw-gradient-0)" d="M0,51L60,68C120,85,240,119,360,110.5C480,102,600,51,720,36.8C840,23,960,45,1080,59.5C1200,74,1320,79,1440,79.3C1560,79,1680,74,1800,79.3C1920,85,2040,102,2160,99.2C2280,96,2400,74,2520,70.8C2640,68,2760,85,2880,90.7C3000,96,3120,91,3240,99.2C3360,108,3480,130,3600,121.8C3720,113,3840,74,3960,48.2C4080,23,4200,11,4320,25.5C4440,40,4560,79,4680,87.8C4800,96,4920,74,5040,62.3C5160,51,5280,51,5400,48.2C5520,45,5640,40,5760,36.8C5880,34,6000,34,6120,34C6240,34,6360,34,6480,51C6600,68,6720,102,6840,107.7C6960,113,7080,91,7200,82.2C7320,74,7440,79,7560,79.3C7680,79,7800,74,7920,85C8040,96,8160,125,8280,138.8C8400,153,8520,153,8580,153L8640,153L8640,170L8580,170C8520,170,8400,170,8280,170C8160,170,8040,170,7920,170C7800,170,7680,170,7560,170C7440,170,7320,170,7200,170C7080,170,6960,170,6840,170C6720,170,6600,170,6480,170C6360,170,6240,170,6120,170C6000,170,5880,170,5760,170C5640,170,5520,170,5400,170C5280,170,5160,170,5040,170C4920,170,4800,170,4680,170C4560,170,4440,170,4320,170C4200,170,4080,170,3960,170C3840,170,3720,170,3600,170C3480,170,3360,170,3240,170C3120,170,3000,170,2880,170C2760,170,2640,170,2520,170C2400,170,2280,170,2160,170C2040,170,1920,170,1800,170C1680,170,1560,170,1440,170C1320,170,1200,170,1080,170C960,170,840,170,720,170C600,170,480,170,360,170C240,170,120,170,60,170L0,170Z"/></svg>